<svg data-v-423bf9ae="" xmlns="http://www.w3.org/2000/svg" viewBox="0 0 344.6982792344681 188" class="iconAboveSlogan"><!----><!----><!----><g data-v-423bf9ae="" id="04233d95-50cd-4e98-aaad-787a51d87642" fill="black" transform="matrix(4.310344803961694,0,0,4.310344803961694,0.7758667582658916,90.75861723801941)"><path d="M1.96 10.44L1.96 10.44L1.96 6.58L1.96 6.58Q1.96 4.52 1.71 3.79L1.71 3.79L1.71 3.49L4.17 3.49L4.17 3.79L4.17 3.79Q4.07 4.12 4.01 5.14L4.01 5.14L4.01 5.14Q3.95 6.17 3.95 6.72L3.95 6.72L3.95 11.03L3.95 11.03Q3.95 12.40 3.75 13.00L3.75 13.00L3.75 13.00Q3.56 13.59 3.45 13.91L3.45 13.91L3.45 13.91Q3.35 14.22 3.07 14.57L3.07 14.57L3.07 14.57Q2.80 14.91 2.67 15.08L2.67 15.08L2.67 15.08Q2.55 15.25 2.17 15.55L2.17 15.55L2.17 15.55Q1.79 15.86 1.68 15.95L1.68 15.95L0.56 16.76L-0.18 16.09L-0.18 16.09Q0.14 15.86 0.60 15.48L0.60 15.48L0.60 15.48Q1.44 14.77 1.70 13.76L1.70 13.76L1.70 13.76Q1.96 12.75 1.96 10.44ZM9.30 13.47L9.30 13.47L9.30 13.47Q7.87 13.47 7.37 12.86L7.37 12.86L7.37 12.86Q6.87 12.25 6.87 10.88L6.87 10.88L6.87 9.21L6.87 9.21Q6.87 7.83 6.45 6.87L6.45 6.87L6.45 6.57L8.89 6.57L8.89 6.90L8.89 6.90Q8.68 7.63 8.68 8.79L8.68 8.79L8.68 10.65L8.68 10.65Q8.68 11.35 8.92 11.74L8.92 11.74L8.92 11.74Q9.16 12.12 9.59 12.12L9.59 12.12L9.59 12.12Q10.33 12.12 11.35 11.41L11.35 11.41L11.35 9.21L11.35 9.21Q11.35 7.80 10.95 6.87L10.95 6.87L10.95 6.57L13.37 6.57L13.37 6.90L13.37 6.90Q13.16 7.63 13.16 8.79L13.16 8.79L13.16 10.65L13.16 10.65Q13.16 11.28 13.36 11.89L13.36 11.89L13.36 11.89Q13.57 12.49 13.85 12.73L13.85 12.73L13.89 13.03L11.69 13.59L11.69 13.59Q11.40 13.09 11.35 12.46L11.35 12.46L11.35 12.46Q10.15 13.47 9.30 13.47ZM17.65 2.84L17.82 3.15L17.82 3.15Q17.77 3.82 17.77 4.75L17.77 4.75L17.77 4.75Q17.77 5.67 17.78 5.88L17.78 5.88L17.78 10.95L17.78 10.95Q17.78 12.25 18.00 12.98L18.00 12.98L18.02 13.29L15.75 13.29L15.75 12.98L15.75 12.98Q15.97 12.25 15.97 10.95L15.97 10.95L15.97 5.45L15.97 5.45Q15.97 4.24 15.34 3.64L15.34 3.64L15.34 3.33L17.65 2.84ZM21.69 3.16L21.84 3.25L21.84 3.25Q21.97 3.36 22.02 3.72L22.02 3.72L22.02 3.72Q22.06 4.09 22.06 4.28L22.06 4.28L22.06 4.28Q22.06 4.48 22.04 4.63L22.04 4.63L21.91 4.75L21.91 4.75Q21.29 4.93 20.30 5.00L20.30 5.00L20.15 4.93L20.15 4.93Q20.03 4.75 19.97 4.33L19.97 4.33L19.97 4.33Q19.91 3.91 19.91 3.74L19.91 3.74L19.91 3.74Q19.91 3.58 19.91 3.53L19.91 3.53L20.03 3.42L20.03 3.42Q20.79 3.16 21.53 3.16L21.53 3.16L21.69 3.16ZM22.11 7.78L22.11 7.78L22.11 10.78L22.11 10.78Q22.11 12.11 22.51 12.98L22.51 12.98L22.51 13.29L20.06 13.29L20.06 12.98L20.06 12.98Q20.30 12.26 20.30 11.09L20.30 11.09L20.30 9.02L20.30 9.02Q20.30 8.25 20.06 7.73L20.06 7.73L20.06 7.73Q19.82 7.22 19.46 7.03L19.46 7.03L19.46 6.72L22.02 6.24L22.19 6.52L22.19 6.52Q22.11 6.85 22.11 7.78ZM26.64 7.57L26.64 11.66L26.64 11.66Q26.64 12.17 26.91 12.17L26.91 12.17L26.91 12.17Q27.29 12.17 28.32 11.73L28.32 11.73L28.74 12.36L28.74 12.36Q28.18 12.73 27.41 13.08L27.41 13.08L27.41 13.08Q26.64 13.44 26.07 13.44L26.07 13.44L26.07 13.44Q24.84 13.44 24.84 12.03L24.84 12.03L24.84 7.57L24.84 7.57Q24.63 7.57 23.45 7.67L23.45 7.67L23.95 6.41L23.95 6.41Q24.21 6.45 24.85 6.48L24.85 6.48L24.85 6.48Q24.82 5.84 24.77 5.29L24.77 5.29L26.64 4.82L26.64 6.47L26.64 6.47Q27.20 6.45 28.84 6.29L28.84 6.29L28.29 7.73L28.29 7.73Q27.58 7.60 26.64 7.57L26.64 7.57ZM33.23 13.55L33.23 13.55L33.23 13.55Q31.60 13.55 30.67 12.60L30.67 12.60L30.67 12.60Q29.74 11.65 29.74 10.09L29.74 10.09L29.74 10.09Q29.74 8.54 30.81 7.43L30.81 7.43L30.81 7.43Q31.89 6.31 33.57 6.31L33.57 6.31L33.57 6.31Q35.24 6.31 36.13 7.24L36.13 7.24L36.13 7.24Q37.02 8.18 37.02 9.74L37.02 9.74L37.02 9.74Q37.02 11.31 35.94 12.43L35.94 12.43L35.94 12.43Q34.86 13.55 33.23 13.55ZM35.00 10.09L35.00 10.09L35.00 10.09Q35.00 8.74 34.61 7.97L34.61 7.97L34.61 7.97Q34.22 7.21 33.24 7.21L33.24 7.21L33.24 7.21Q32.61 7.21 32.26 7.52L32.26 7.52L32.26 7.52Q32.03 7.84 31.89 8.48L31.89 8.48L31.89 8.48Q31.75 9.13 31.75 9.73L31.75 9.73L31.75 9.73Q31.75 12.66 33.61 12.66L33.61 12.66L33.61 12.66Q34.17 12.66 34.52 12.36L34.52 12.36L34.52 12.36Q34.76 12.04 34.88 11.38L34.88 11.38L34.88 11.38Q35.00 10.71 35.00 10.09ZM43.19 6.30L43.19 6.30L43.19 6.30Q44.52 6.30 44.95 7.48L44.95 7.48L44.95 7.48Q45.42 7.10 45.70 6.89L45.70 6.89L45.70 6.89Q45.99 6.68 46.42 6.49L46.42 6.49L46.42 6.49Q46.86 6.30 47.25 6.30L47.25 6.30L47.25 6.30Q48.30 6.30 48.87 6.95L48.87 6.95L48.87 6.95Q49.45 7.60 49.45 8.83L49.45 8.83L49.45 10.75L49.45 10.75Q49.45 12.00 49.87 12.98L49.87 12.98L49.87 13.29L47.40 13.29L47.40 12.98L47.40 12.98Q47.64 12.32 47.64 11.19L47.64 11.19L47.64 9.34L47.64 9.34Q47.64 8.54 47.45 8.15L47.45 8.15L47.45 8.15Q47.25 7.76 46.63 7.76L46.63 7.76L46.63 7.76Q46.00 7.76 45.14 8.25L45.14 8.25L45.14 8.25Q45.16 8.61 45.16 8.83L45.16 8.83L45.16 10.75L45.16 10.75Q45.16 12.00 45.58 12.98L45.58 12.98L45.58 13.29L43.26 13.29L43.26 12.98L43.26 12.98Q43.50 12.32 43.50 11.19L43.50 11.19L43.50 9.34L43.50 9.34Q43.50 8.54 43.32 8.15L43.32 8.15L43.32 8.15Q43.13 7.76 42.55 7.76L42.55 7.76L42.55 7.76Q41.97 7.76 41.01 8.34L41.01 8.34L41.01 10.78L41.01 10.78Q41.01 12.11 41.41 12.98L41.41 12.98L41.41 13.29L38.96 13.29L38.96 12.98L38.96 12.98Q39.20 12.26 39.20 11.09L39.20 11.09L39.20 9.02L39.20 9.02Q39.20 7.45 38.36 7.03L38.36 7.03L38.36 6.72L40.63 6.29L40.77 6.55L40.77 6.55Q40.88 6.83 40.94 7.45L40.94 7.45L40.94 7.45Q41.59 6.86 42.09 6.58L42.09 6.58L42.09 6.58Q42.59 6.30 43.19 6.30ZM54.25 13.47L54.25 13.47L54.25 13.47Q52.82 13.47 52.33 12.86L52.33 12.86L52.33 12.86Q51.83 12.25 51.83 10.88L51.83 10.88L51.83 9.21L51.83 9.21Q51.83 7.83 51.41 6.87L51.41 6.87L51.41 6.57L53.84 6.57L53.84 6.90L53.84 6.90Q53.63 7.63 53.63 8.79L53.63 8.79L53.63 10.65L53.63 10.65Q53.63 11.35 53.87 11.74L53.87 11.74L53.87 11.74Q54.11 12.12 54.54 12.12L54.54 12.12L54.54 12.12Q55.29 12.12 56.31 11.41L56.31 11.41L56.31 9.21L56.31 9.21Q56.31 7.80 55.90 6.87L55.90 6.87L55.90 6.57L58.32 6.57L58.32 6.90L58.32 6.90Q58.11 7.63 58.11 8.79L58.11 8.79L58.11 10.65L58.11 10.65Q58.11 11.28 58.32 11.89L58.32 11.89L58.32 11.89Q58.52 12.49 58.80 12.73L58.80 12.73L58.84 13.03L56.64 13.59L56.64 13.59Q56.35 13.09 56.31 12.46L56.31 12.46L56.31 12.46Q55.10 13.47 54.25 13.47ZM67.06 12.98L67.06 13.29L64.22 13.29L64.22 13.08L64.22 13.08Q64.22 12.52 63.69 11.82L63.69 11.82L63.11 11.05L62.50 11.98L62.50 11.98Q62.03 12.68 62.02 13.08L62.02 13.08L62.02 13.29L59.60 13.29L59.60 12.98L59.60 12.98Q59.91 12.88 60.34 12.52L60.34 12.52L60.34 12.52Q60.77 12.15 61.08 11.68L61.08 11.68L62.24 9.87L61.19 8.44L61.19 8.44Q60.77 7.87 60.28 7.36L60.28 7.36L60.28 7.36Q59.79 6.85 59.58 6.79L59.58 6.79L59.58 6.48L62.20 6.48L62.20 6.68L62.20 6.68Q62.20 7.04 62.87 7.90L62.87 7.90L63.36 8.55L63.84 7.81L63.84 7.81Q64.32 7.06 64.32 6.66L64.32 6.66L64.32 6.47L66.72 6.48L66.72 6.79L66.72 6.79Q65.94 7.04 65.24 8.15L65.24 8.15L64.23 9.73L65.44 11.31L65.44 11.31Q65.91 11.94 66.39 12.42L66.39 12.42L66.39 12.42Q66.86 12.89 67.06 12.98L67.06 12.98ZM69.90 3.16L70.06 3.25L70.06 3.25Q70.18 3.36 70.23 3.72L70.23 3.72L70.23 3.72Q70.28 4.09 70.28 4.28L70.28 4.28L70.28 4.28Q70.28 4.48 70.25 4.63L70.25 4.63L70.13 4.75L70.13 4.75Q69.51 4.93 68.52 5.00L68.52 5.00L68.36 4.93L68.36 4.93Q68.25 4.75 68.19 4.33L68.19 4.33L68.19 4.33Q68.12 3.91 68.12 3.74L68.12 3.74L68.12 3.74Q68.12 3.58 68.12 3.53L68.12 3.53L68.25 3.42L68.25 3.42Q69.01 3.16 69.75 3.16L69.75 3.16L69.90 3.16ZM70.32 7.78L70.32 7.78L70.32 10.78L70.32 10.78Q70.32 12.11 70.73 12.98L70.73 12.98L70.73 13.29L68.28 13.29L68.28 12.98L68.28 12.98Q68.52 12.26 68.52 11.09L68.52 11.09L68.52 9.02L68.52 9.02Q68.52 8.25 68.28 7.73L68.28 7.73L68.28 7.73Q68.04 7.22 67.68 7.03L67.68 7.03L67.68 6.72L70.24 6.24L70.41 6.52L70.41 6.52Q70.32 6.85 70.32 7.78ZM74.79 12.98L74.79 13.29L72.52 13.29L72.52 12.98L72.52 12.98Q72.74 12.29 72.74 10.95L72.74 10.95L72.74 5.45L72.74 5.45Q72.74 4.24 72.11 3.64L72.11 3.64L72.11 3.33L74.42 2.84L74.59 3.15L74.59 3.15Q74.55 3.54 74.55 5.88L74.55 5.88L74.55 8.60L76.65 7.00L76.65 7.00Q76.97 6.75 76.97 6.48L76.97 6.48L79.17 6.48L79.17 6.79L79.17 6.79Q78.64 6.86 77.70 7.62L77.70 7.62L75.73 9.20L78.25 11.90L78.25 11.90Q78.47 12.14 78.97 12.52L78.97 12.52L78.97 12.52Q79.46 12.91 79.79 12.98L79.79 12.98L79.79 13.29L77.13 13.29L77.13 13.29Q77.13 13.02 76.85 12.73L76.85 12.73L76.85 12.73Q76.47 12.26 74.55 10.15L74.55 10.15L74.55 10.78L74.55 10.78Q74.55 12.31 74.79 12.98L74.79 12.98Z"></path></g><!----><g data-v-423bf9ae="" id="4405cd13-ef90-4480-adbf-7af5ac134914" transform="matrix(1.5660258957254516,0,0,1.5660258957254516,95.17228759096032,-31.813349577956615)" stroke="none" fill="black"><path d="M89.828 71.541a2.307 2.307 0 0 0-2.305 2.303 2.305 2.305 0 1 0 2.305-2.303zm-1.76 2.302c0-.594.299-1.118.752-1.438l1.551 3.102a1.725 1.725 0 0 1-.543.095c-.971 0-1.76-.789-1.76-1.759zm2.789 1.419l-1.545-3.091c.164-.051.334-.086.516-.086a1.76 1.76 0 0 1 1.758 1.758 1.76 1.76 0 0 1-.729 1.419z"></path><path d="M91.69 22.002H81.082l.022-.069a.802.802 0 0 0-.097-.739.81.81 0 0 0-.67-.323H19.006a.817.817 0 0 0-.672.323.812.812 0 0 0-.1.739l.022.07H7.52a2.668 2.668 0 0 0-2.665 2.665v51.007a2.668 2.668 0 0 0 2.665 2.666h84.17a2.668 2.668 0 0 0 2.665-2.666V24.667a2.668 2.668 0 0 0-2.665-2.665zm-72.684-.333l61.34.012-.106.321H19.113l-.107-.333zm72.513 4.828a1.76 1.76 0 0 1-1.758 1.758c-.191 0-.372-.038-.545-.095l1.552-3.101c.453.318.751.843.751 1.438zm-2.789 1.418a1.753 1.753 0 0 1-.729-1.418c0-.97.789-1.758 1.758-1.758.181 0 .352.035.516.086l-1.545 3.09zm-1.273-1.418a2.302 2.302 0 1 0 4.056 1.493L90.33 50.125a22.153 22.153 0 0 0-2.601-7.681V36.52l-4.812-.006a22.358 22.358 0 0 0-5.481-3.535l2.832-8.528 8.142.184a2.297 2.297 0 0 0-.953 1.862zM79.35 72.18H57.152a22.049 22.049 0 0 1-9.295-10.888h14.299a10.007 10.007 0 0 0 6.096 2.063c5.545 0 10.056-4.513 10.056-10.056 0-5.545-4.511-10.056-10.056-10.056-2.517 0-4.817.931-6.584 2.464H47.699a21.911 21.911 0 0 1 3.7-6.393h23.078c.224 0 .444-.076.634-.2h.076l.023-.071a1.19 1.19 0 0 0 .39-.54l.532-1.601 6.637.009a22.108 22.108 0 0 1 4.561 5.637V64.05a22.075 22.075 0 0 1-7.98 8.13zm7.98-7.327v4.449l-2.781 2.878h-4.434a22.5 22.5 0 0 0 7.215-7.327zm-8.679 7.727a21.784 21.784 0 0 1-10.399 2.631c-3.762 0-7.306-.955-10.4-2.631h20.799zM11.913 41.173l5.405 15.788.064-.021c1.611 6.063 7.146 10.546 13.709 10.546 4.859 0 9.155-2.458 11.712-6.193h4.624a22.436 22.436 0 0 0 8.96 10.889H14.5l-2.587-2.874V41.173zM9.449 24.738c.97 0 1.759.789 1.759 1.758a1.75 1.75 0 0 1-.728 1.417l-1.545-3.09c.164-.05.335-.085.514-.085zm-1.007.321l1.551 3.101a1.727 1.727 0 0 1-.544.095 1.755 1.755 0 1 1-1.007-3.196zM9.449 28.8a2.301 2.301 0 1 0 1.352-4.166l8.251-.185 3.89 11.984-11.428-.015v2.353L7.891 28.187c.41.379.957.613 1.558.613zm59.069 17.308c4.075 0 7.392 3.316 7.392 7.392 0 4.076-3.314 7.393-7.392 7.393h-6.224a9.735 9.735 0 0 1-2.701-3.318v-6.736h-.68a9.685 9.685 0 0 1 2.902-4.729l6.703-.002zm-6.224-.399a9.605 9.605 0 0 1 5.957-2.064c5.324 0 9.656 4.332 9.656 9.655 0 5.324-4.332 9.656-9.656 9.656a9.606 9.606 0 0 1-5.414-1.664h5.681c4.296 0 7.791-3.496 7.791-7.793 0-4.295-3.495-7.791-7.791-7.791h-6.224zM17.307 53.3c0-7.601 6.185-13.784 13.785-13.784 4.798 0 9.029 2.465 11.499 6.193h-4.916a10.01 10.01 0 0 0-6.583-2.464c-5.544 0-10.056 4.511-10.056 10.055 0 5.545 4.512 10.057 10.056 10.057 2.29 0 4.402-.771 6.095-2.064h5.127c-2.502 3.504-6.598 5.795-11.222 5.795-7.601-.003-13.785-6.187-13.785-13.788zm41.887 3.35a9.626 9.626 0 0 1-.375-5.414h.375v5.414zm0 1.017v1.228H47.068a21.832 21.832 0 0 1-.627-7.658H58.41a10.001 10.001 0 0 0 .784 6.43zm-12.542 1.228h-2.527a14.104 14.104 0 0 0 1.151-5.595c0-.7-.053-1.391-.151-2.063h.916a22.306 22.306 0 0 0 .611 7.658zM44.877 53.3c0 1.99-.428 3.884-1.19 5.595h-3.671v-.968a10.02 10.02 0 0 0 .918-6.69h3.789c.1.673.154 1.363.154 2.063zm-14.051 7.592c-4.076 0-7.393-3.314-7.393-7.393 0-4.075 3.316-7.392 7.393-7.392h6.7a9.666 9.666 0 0 1 2.902 4.729h-.813v6.994a9.772 9.772 0 0 1-2.567 3.061h-6.222v.001zm5.681.4a9.614 9.614 0 0 1-5.415 1.664c-5.324 0-9.655-4.332-9.655-9.656s4.331-9.655 9.655-9.655c2.247 0 4.314.773 5.957 2.064h-6.223c-4.297 0-7.792 3.495-7.792 7.791 0 4.297 3.495 7.793 7.792 7.793h5.681zm3.509-10.056h.508a9.62 9.62 0 0 1-.507 5.75l-.001-5.75zm.826-.399a10.07 10.07 0 0 0-2.731-4.729h4.736a13.704 13.704 0 0 1 1.806 4.729h-3.811zm-3.167 10.055a10.055 10.055 0 0 0 1.941-2.266v.668h3.888a13.745 13.745 0 0 1-.913 1.598h-4.916zm6.269-1.598h2.822c.15.541.317 1.074.507 1.598h-4.208a13.99 13.99 0 0 0 .879-1.598zm3.238 0h12.411v-.887a10.138 10.138 0 0 0 2.074 2.483H47.699a21.692 21.692 0 0 1-.517-1.596zm11.319-8.457H46.483a21.78 21.78 0 0 1 1.077-4.729h13.673a10.052 10.052 0 0 0-2.732 4.729zm-12.42 0h-1.022a14.084 14.084 0 0 0-1.748-4.729h3.828a22.103 22.103 0 0 0-1.058 4.729zm-3.016-5.128c-2.117-3.326-5.577-5.714-9.612-6.393h17.434a22.295 22.295 0 0 0-3.613 6.393h-4.209zm31.778-7.456a.447.447 0 0 1-.365.264h-22.38c4.008-4.376 9.765-7.126 16.153-7.126 2.944 0 5.754.588 8.322 1.647l-1.73 5.215zm2.467-4.893a21.972 21.972 0 0 1 4.998 3.152l-6.042-.008 1.044-3.144zm-65.397 3.459l11.157.015.541 1.667c.069.213.21.399.386.541l.024.074h.079c.189.124.41.2.634.2h3.998c-6.701 1.128-11.824 6.968-11.824 13.984 0 .486.025.966.073 1.439l-5.067-14.801-.001-3.119zm75.417 4.93a22.5 22.5 0 0 0-3.961-4.835l3.961.005v4.83zm.399 1.541c1.55 3.003 2.431 6.405 2.431 10.01s-.881 7.009-2.431 10.012V43.29zM76.701 32.659a22.172 22.172 0 0 0-8.449-1.667c-.584 0-1.16.03-1.731.074v-3.07h-3.263v3.263h1.549c-5.237.815-9.874 3.461-13.242 7.258h-26.83a.435.435 0 0 1-.361-.263L19.9 24.431l28.107-.631v1.132h3.463V23.8l27.963.632-2.732 8.227zM51.47 23.4h-3.468l-28.23.633-.399-1.232h60.603l-.41 1.234L51.47 23.4zm42.087 52.275a1.868 1.868 0 0 1-1.866 1.865H7.52a1.868 1.868 0 0 1-1.865-1.865V24.667c0-1.029.837-1.866 1.865-1.866h10.997l.406 1.252-8.954.201a2.307 2.307 0 0 0-2.824 2.243c0 .303.061.592.168.857l-.117.04 4.317 12.612v29.453l2.808 3.121h42.726a22.167 22.167 0 0 0 11.205 3.029c4.082 0 7.908-1.107 11.205-3.029h5.262l3.012-3.117v-5.305a22.162 22.162 0 0 0 2.83-10.852l1.395-26.108a2.306 2.306 0 0 0-2.714-2.945l-8.842-.2.416-1.253H91.69c1.028 0 1.866.837 1.866 1.866l.001 51.009z"></path><circle cx="26.896" cy="26.597" r="1.998"></circle><circle cx="72.38" cy="26.597" r="1.998"></circle><path d="M32.757 27.996h3.263v3.263h-3.263zM49.705 30.842a2.532 2.532 0 0 0-2.53 2.53c0 1.396 1.135 2.531 2.53 2.531s2.53-1.135 2.53-2.531a2.533 2.533 0 0 0-2.53-2.53zm0 4.462a1.934 1.934 0 0 1-1.932-1.931c0-1.064.866-1.931 1.932-1.931 1.064 0 1.931.866 1.931 1.931s-.866 1.931-1.931 1.931z"></path><path d="M50.708 32.369a.348.348 0 0 0-.492 0l-.511.512-.513-.512a.348.348 0 0 0-.491.492l.512.512-.512.512a.348.348 0 0 0 .491.492l.513-.512.511.512a.348.348 0 1 0 .492-.492l-.513-.512.513-.512a.346.346 0 0 0 0-.492zM9.449 71.541a2.306 2.306 0 0 0-2.304 2.303 2.307 2.307 0 0 0 2.304 2.305 2.306 2.306 0 0 0 2.304-2.305 2.306 2.306 0 0 0-2.304-2.303zm-1.758 2.302a1.76 1.76 0 0 1 1.758-1.758c.181 0 .351.035.515.086l-1.545 3.09a1.752 1.752 0 0 1-.728-1.418zm1.758 1.759a1.72 1.72 0 0 1-.543-.095l1.55-3.102c.453.318.752.844.752 1.438a1.76 1.76 0 0 1-1.759 1.759zM30.859 47.241c-3.36 0-6.094 2.733-6.094 6.092s2.733 6.094 6.094 6.094a6.1 6.1 0 0 0 6.093-6.094 6.1 6.1 0 0 0-6.093-6.092zm4.895 6.092c0 .722-.161 1.404-.442 2.021l-.972-.596c-.154.375-.367.72-.627 1.021l.973.596a4.893 4.893 0 0 1-3.227 1.812v-1.144a3.835 3.835 0 0 1-.6.053c-.205 0-.404-.021-.6-.053v1.144a4.888 4.888 0 0 1-3.352-1.978l.996-.553a3.757 3.757 0 0 1-.581-1.049l-1 .557a4.866 4.866 0 0 1 .084-3.853l.972.595c.153-.375.367-.719.627-1.021l-.973-.596a4.89 4.89 0 0 1 3.227-1.81v1.144c.195-.031.395-.052.6-.052.204 0 .403.021.6.052V48.48a4.894 4.894 0 0 1 3.351 1.977l-.996.553c.247.314.443.666.581 1.049l1-.557c.229.566.359 1.185.359 1.831zM68.417 59.427a6.101 6.101 0 0 0 6.094-6.094 6.1 6.1 0 0 0-6.094-6.092c-3.359 0-6.094 2.733-6.094 6.092s2.735 6.094 6.094 6.094zm-4.894-6.094c0-.721.161-1.403.441-2.021l.973.595c.152-.375.367-.719.627-1.021l-.973-.596a4.89 4.89 0 0 1 3.227-1.81v1.144c.195-.031.395-.052.6-.052s.403.021.6.052V48.48a4.894 4.894 0 0 1 3.352 1.977l-.996.553a3.8 3.8 0 0 1 .582 1.049l1-.557a4.858 4.858 0 0 1-.084 3.853l-.972-.596a3.699 3.699 0 0 1-.627 1.021l.974.596a4.896 4.896 0 0 1-3.229 1.811v-1.145c-.195.031-.395.054-.6.054s-.403-.021-.6-.054v1.145a4.89 4.89 0 0 1-3.352-1.977l.996-.553a3.74 3.74 0 0 1-.582-1.05l-1 .556a4.87 4.87 0 0 1-.357-1.83z"></path></g><!----><g data-v-423bf9ae="" id="34c6d44f-9543-4a9c-8e91-d5bd7b600b20" fill="black" transform="matrix(0.9552309172081388,0,0,0.9552309172081388,43.76187289967331,199.59829464532805)"><path d="M3.68 6.73C3.19 6.73 2.74 6.83 2.35 7.00C1.96 7.17 1.64 7.41 1.37 7.71C1.11 8.02 0.90 8.39 0.76 8.81C0.62 9.23 0.53 9.69 0.53 10.19C0.53 10.78 0.62 11.31 0.77 11.77C0.92 12.24 1.13 12.61 1.41 12.94C1.69 13.26 2.03 13.50 2.42 13.66C2.81 13.83 3.25 13.90 3.72 13.90C3.99 13.90 4.26 13.89 4.51 13.83C4.76 13.78 5.01 13.71 5.24 13.62C5.46 13.54 5.67 13.44 5.85 13.31C6.03 13.19 6.19 13.06 6.30 12.92L6.12 12.70C6.09 12.66 6.03 12.63 5.98 12.63C5.94 12.63 5.85 12.66 5.75 12.74C5.66 12.82 5.52 12.91 5.33 13.01C5.17 13.10 4.94 13.17 4.69 13.26C4.44 13.34 4.13 13.38 3.78 13.38C3.39 13.38 3.04 13.31 2.72 13.17C2.39 13.03 2.13 12.84 1.90 12.57C1.68 12.31 1.51 11.97 1.39 11.58C1.26 11.19 1.20 10.71 1.20 10.19L1.20 10.07L6.23 10.07C6.30 10.07 6.34 10.05 6.37 10.01C6.40 9.97 6.43 9.90 6.43 9.80C6.43 9.31 6.36 8.88 6.22 8.50C6.08 8.12 5.89 7.78 5.64 7.53C5.40 7.28 5.11 7.08 4.77 6.94C4.44 6.80 4.07 6.73 3.68 6.73ZM3.70 7.24C4.02 7.24 4.30 7.29 4.56 7.41C4.83 7.52 5.05 7.67 5.24 7.88C5.42 8.09 5.57 8.33 5.67 8.62C5.77 8.92 5.82 9.25 5.82 9.63L1.23 9.63C1.27 9.27 1.36 8.93 1.48 8.64C1.61 8.34 1.78 8.09 1.99 7.88C2.20 7.67 2.45 7.52 2.73 7.41C3.01 7.29 3.33 7.24 3.70 7.24ZM17.05 13.29L16.98 13.29L16.87 13.29C16.83 13.29 16.76 13.27 16.66 13.27C16.56 13.27 16.45 13.26 16.32 13.26L16.32 3.63L15.65 3.63L14.64 3.63L14.64 3.91C14.64 4.06 14.74 4.14 14.92 4.16L14.99 4.16C15.02 4.16 15.06 4.17 15.11 4.17L15.32 4.17C15.41 4.17 15.53 4.19 15.65 4.19L15.65 13.26C15.50 13.26 15.36 13.29 15.25 13.29L15.01 13.29L14.92 13.29C14.74 13.30 14.64 13.38 14.64 13.54L14.64 13.82L15.65 13.82L16.32 13.82L17.33 13.82L17.33 13.54C17.33 13.38 17.23 13.30 17.05 13.29ZM41.65 7.63C41.17 7.04 40.50 6.73 39.65 6.73C39.13 6.73 38.68 6.86 38.26 7.11C37.86 7.36 37.49 7.69 37.18 8.11L37.11 7.03C37.11 6.96 37.10 6.92 37.06 6.89C37.02 6.86 36.96 6.86 36.90 6.86L36.54 6.86L35.53 6.86L35.53 7.13C35.53 7.28 35.63 7.36 35.81 7.38L35.88 7.38C35.91 7.38 35.95 7.39 35.99 7.39L36.20 7.39C36.30 7.39 36.41 7.41 36.54 7.41L36.54 15.72C36.39 15.72 36.25 15.75 36.13 15.75L35.90 15.75L35.81 15.75C35.63 15.76 35.53 15.85 35.53 16.00L35.53 16.28L36.54 16.28L37.21 16.28L38.22 16.28L38.22 16.00C38.22 15.85 38.12 15.76 37.94 15.75L37.87 15.75L37.76 15.75C37.72 15.75 37.65 15.74 37.55 15.74C37.45 15.74 37.34 15.72 37.21 15.72L37.21 12.88C37.46 13.22 37.76 13.48 38.11 13.65C38.46 13.82 38.86 13.90 39.34 13.90C39.83 13.90 40.25 13.80 40.63 13.62C41.01 13.44 41.33 13.19 41.58 12.87C41.83 12.54 42.04 12.15 42.17 11.72C42.31 11.28 42.36 10.79 42.36 10.29C42.36 9.10 42.13 8.22 41.65 7.63ZM41.52 11.55C41.43 11.93 41.26 12.25 41.05 12.53C40.84 12.81 40.59 13.01 40.28 13.16C39.97 13.31 39.61 13.38 39.20 13.38C38.78 13.38 38.42 13.30 38.09 13.13C37.77 12.96 37.48 12.70 37.21 12.29L37.21 8.64C37.51 8.20 37.83 7.87 38.21 7.63C38.58 7.39 39.00 7.28 39.47 7.28C40.18 7.28 40.73 7.52 41.10 8.01C41.48 8.50 41.68 9.25 41.68 10.29C41.68 10.75 41.64 11.17 41.52 11.55ZM53.00 13.29L52.93 13.29L52.82 13.29C52.78 13.29 52.71 13.27 52.61 13.27C52.51 13.27 52.40 13.26 52.28 13.26L52.28 3.63L51.60 3.63L50.60 3.63L50.60 3.91C50.60 4.06 50.69 4.14 50.88 4.16L50.95 4.16C50.97 4.16 51.02 4.17 51.06 4.17L51.27 4.17C51.37 4.17 51.48 4.19 51.60 4.19L51.60 13.26C51.45 13.26 51.31 13.29 51.20 13.29L50.96 13.29L50.88 13.29C50.69 13.30 50.60 13.38 50.60 13.54L50.60 13.82L51.60 13.82L52.28 13.82L53.28 13.82L53.28 13.54C53.28 13.38 53.19 13.30 53.00 13.29ZM67.12 13.29L67.02 13.29L66.79 13.29C66.70 13.29 66.58 13.27 66.47 13.27L66.47 9.28C66.47 8.89 66.43 8.55 66.33 8.23C66.23 7.91 66.09 7.64 65.91 7.42C65.73 7.20 65.49 7.03 65.21 6.92C64.93 6.79 64.61 6.73 64.23 6.73C63.73 6.73 63.28 6.83 62.87 7.01C62.47 7.20 62.09 7.48 61.73 7.84L61.84 8.05C61.88 8.13 61.95 8.18 62.05 8.18C62.12 8.18 62.22 8.12 62.31 8.02C62.41 7.92 62.55 7.84 62.72 7.73C62.89 7.62 63.07 7.52 63.31 7.42C63.55 7.32 63.83 7.28 64.16 7.28C64.71 7.28 65.13 7.45 65.41 7.80C65.69 8.15 65.81 8.64 65.81 9.28L65.81 10.01C65.03 10.02 64.36 10.09 63.80 10.21C63.24 10.32 62.78 10.47 62.41 10.65C62.05 10.84 61.80 11.06 61.63 11.31C61.46 11.56 61.38 11.83 61.38 12.12C61.38 12.45 61.43 12.73 61.53 12.95C61.64 13.17 61.78 13.36 61.95 13.50C62.12 13.64 62.33 13.75 62.55 13.82C62.78 13.89 63.00 13.93 63.24 13.93C63.52 13.93 63.78 13.90 64.02 13.85C64.26 13.79 64.47 13.71 64.68 13.61C64.89 13.51 65.09 13.38 65.28 13.23C65.46 13.08 65.65 12.91 65.84 12.73L65.94 13.62C65.97 13.75 66.07 13.82 66.21 13.82L66.22 13.82L66.47 13.82L67.40 13.82L67.40 13.54C67.40 13.38 67.30 13.30 67.12 13.29ZM65.81 12.26C65.65 12.43 65.49 12.60 65.32 12.74C65.16 12.88 64.97 13.01 64.78 13.12C64.58 13.23 64.37 13.30 64.15 13.36C63.92 13.41 63.67 13.44 63.41 13.44C63.22 13.44 63.04 13.43 62.87 13.37C62.71 13.31 62.57 13.24 62.44 13.13C62.31 13.02 62.20 12.88 62.13 12.71C62.05 12.54 62.02 12.35 62.02 12.11C62.02 11.86 62.09 11.63 62.24 11.44C62.40 11.24 62.62 11.09 62.93 10.95C63.24 10.81 63.63 10.70 64.11 10.61C64.58 10.53 65.16 10.47 65.81 10.46ZM80.72 12.70C80.70 12.66 80.64 12.63 80.58 12.63C80.53 12.63 80.47 12.66 80.39 12.74C80.30 12.82 80.18 12.91 80.04 13.01C79.90 13.10 79.70 13.17 79.48 13.26C79.25 13.34 78.96 13.38 78.62 13.38C78.26 13.38 77.92 13.31 77.63 13.17C77.34 13.03 77.08 12.85 76.87 12.59C76.66 12.33 76.50 12.01 76.38 11.63C76.27 11.26 76.22 10.82 76.22 10.33C76.22 9.86 76.27 9.44 76.38 9.06C76.50 8.68 76.66 8.36 76.87 8.09C77.08 7.83 77.35 7.62 77.66 7.48C77.97 7.34 78.32 7.27 78.72 7.27C79.07 7.27 79.46 7.35 79.91 7.50C79.93 7.69 79.93 7.87 79.94 8.04C79.95 8.20 79.97 8.33 79.98 8.43C80.00 8.53 80.00 8.58 80.00 8.60C80.01 8.82 80.11 8.93 80.30 8.93L80.64 8.93L80.64 7.18L80.28 7.07C80.04 7.00 79.74 6.92 79.42 6.85C79.10 6.78 78.85 6.75 78.68 6.75C78.18 6.75 77.74 6.82 77.35 7.00C76.96 7.18 76.62 7.42 76.36 7.74C76.09 8.06 75.89 8.44 75.75 8.88C75.61 9.31 75.53 9.80 75.53 10.33C75.53 10.89 75.60 11.40 75.75 11.84C75.89 12.29 76.10 12.66 76.37 12.96C76.64 13.27 76.96 13.51 77.32 13.66C77.69 13.83 78.08 13.92 78.53 13.92C78.79 13.92 79.04 13.89 79.28 13.83C79.52 13.78 79.74 13.72 79.95 13.64C80.16 13.55 80.33 13.44 80.50 13.31C80.67 13.19 80.79 13.06 80.91 12.92ZM92.11 6.73C91.62 6.73 91.17 6.83 90.78 7.00C90.38 7.17 90.06 7.41 89.80 7.71C89.53 8.02 89.32 8.39 89.18 8.81C89.04 9.23 88.96 9.69 88.96 10.19C88.96 10.78 89.04 11.31 89.19 11.77C89.35 12.24 89.56 12.61 89.84 12.94C90.12 13.26 90.45 13.50 90.85 13.66C91.24 13.83 91.67 13.90 92.15 13.90C92.41 13.90 92.68 13.89 92.93 13.83C93.18 13.78 93.44 13.71 93.66 13.62C93.88 13.54 94.09 13.44 94.28 13.31C94.46 13.19 94.61 13.06 94.72 12.92L94.54 12.70C94.51 12.66 94.46 12.63 94.40 12.63C94.36 12.63 94.28 12.66 94.18 12.74C94.08 12.82 93.94 12.91 93.76 13.01C93.59 13.10 93.37 13.17 93.11 13.26C92.86 13.34 92.55 13.38 92.20 13.38C91.81 13.38 91.46 13.31 91.14 13.17C90.82 13.03 90.55 12.84 90.33 12.57C90.10 12.31 89.94 11.97 89.81 11.58C89.68 11.19 89.63 10.71 89.63 10.19L89.63 10.07L94.65 10.07C94.72 10.07 94.77 10.05 94.79 10.01C94.82 9.97 94.85 9.90 94.85 9.80C94.85 9.31 94.78 8.88 94.64 8.50C94.50 8.12 94.32 7.78 94.07 7.53C93.83 7.28 93.53 7.08 93.20 6.94C92.86 6.80 92.50 6.73 92.11 6.73ZM92.12 7.24C92.44 7.24 92.72 7.29 92.99 7.41C93.25 7.52 93.48 7.67 93.66 7.88C93.84 8.09 94.00 8.33 94.09 8.62C94.19 8.92 94.25 9.25 94.25 9.63L89.66 9.63C89.70 9.27 89.78 8.93 89.91 8.64C90.03 8.34 90.20 8.09 90.41 7.88C90.62 7.67 90.87 7.52 91.15 7.41C91.43 7.29 91.76 7.24 92.12 7.24ZM107.60 6.80C107.42 6.76 107.24 6.73 107.03 6.73C106.48 6.73 106.02 6.89 105.64 7.21C105.27 7.53 104.97 7.98 104.75 8.54L104.69 7.07C104.69 6.99 104.66 6.93 104.64 6.90C104.61 6.87 104.55 6.86 104.47 6.86L104.12 6.86L104.12 6.86L103.11 6.86L103.11 7.13C103.11 7.31 103.21 7.36 103.38 7.38C103.46 7.38 103.54 7.38 104.12 7.41L104.12 13.26C103.54 13.29 103.46 13.29 103.38 13.29C103.21 13.30 103.11 13.36 103.11 13.54L103.11 13.82L104.12 13.82L104.78 13.82L104.78 13.82L105.78 13.82L105.78 13.54C105.78 13.36 105.69 13.30 105.52 13.29C105.43 13.29 105.35 13.29 104.78 13.26L104.78 9.30C104.99 8.68 105.27 8.20 105.60 7.88C105.94 7.56 106.37 7.39 106.90 7.39C107.04 7.39 107.17 7.41 107.28 7.42C107.39 7.43 107.51 7.45 107.58 7.48C107.66 7.50 107.70 7.53 107.76 7.55C107.81 7.56 107.86 7.57 107.88 7.57C107.97 7.57 108.01 7.53 108.02 7.46L108.11 7.00C107.95 6.92 107.79 6.85 107.60 6.80ZM133.15 13.54C133.15 13.38 133.07 13.30 132.89 13.29L132.82 13.29L132.72 13.29C132.68 13.29 132.61 13.27 132.52 13.27L132.22 13.27L132.22 3.63L131.56 3.63L130.55 3.63L130.55 3.91C130.55 4.06 130.65 4.14 130.83 4.16L130.90 4.16C130.93 4.16 130.96 4.17 131.00 4.17L131.22 4.17C131.32 4.17 131.43 4.19 131.56 4.19L131.56 7.76C131.31 7.42 131.01 7.17 130.66 7.00C130.31 6.82 129.91 6.73 129.43 6.73C128.94 6.73 128.51 6.83 128.13 7.01C127.75 7.20 127.44 7.46 127.18 7.78C126.91 8.11 126.73 8.50 126.59 8.93C126.45 9.37 126.39 9.84 126.39 10.35C126.39 11.54 126.63 12.43 127.11 13.02C127.58 13.61 128.25 13.90 129.11 13.90C129.63 13.90 130.09 13.79 130.51 13.54C130.93 13.29 131.28 12.95 131.59 12.53L131.66 13.64C131.67 13.76 131.74 13.82 131.85 13.82L132.22 13.82L133.15 13.82L133.15 13.61ZM131.56 12.01C131.26 12.43 130.93 12.77 130.55 13.01C130.17 13.24 129.77 13.37 129.30 13.37C128.59 13.37 128.03 13.13 127.65 12.64C127.27 12.15 127.08 11.38 127.08 10.35C127.08 9.88 127.12 9.48 127.23 9.10C127.34 8.72 127.50 8.39 127.71 8.12C127.92 7.85 128.17 7.63 128.48 7.48C128.79 7.32 129.15 7.25 129.56 7.25C129.96 7.25 130.34 7.34 130.66 7.50C130.98 7.67 131.29 7.95 131.56 8.34ZM144.38 6.73C143.89 6.73 143.44 6.83 143.05 7.00C142.66 7.17 142.34 7.41 142.07 7.71C141.81 8.02 141.60 8.39 141.46 8.81C141.32 9.23 141.23 9.69 141.23 10.19C141.23 10.78 141.32 11.31 141.47 11.77C141.62 12.24 141.83 12.61 142.11 12.94C142.39 13.26 142.73 13.50 143.12 13.66C143.51 13.83 143.95 13.90 144.42 13.90C144.69 13.90 144.96 13.89 145.21 13.83C145.46 13.78 145.71 13.71 145.94 13.62C146.16 13.54 146.37 13.44 146.55 13.31C146.73 13.19 146.89 13.06 147 12.92L146.82 12.70C146.79 12.66 146.73 12.63 146.68 12.63C146.64 12.63 146.55 12.66 146.45 12.74C146.36 12.82 146.22 12.91 146.03 13.01C145.87 13.10 145.64 13.17 145.39 13.26C145.14 13.34 144.83 13.38 144.48 13.38C144.09 13.38 143.74 13.31 143.42 13.17C143.09 13.03 142.83 12.84 142.60 12.57C142.38 12.31 142.21 11.97 142.09 11.58C141.96 11.19 141.90 10.71 141.90 10.19L141.90 10.07L146.93 10.07C147 10.07 147.04 10.05 147.07 10.01C147.10 9.97 147.13 9.90 147.13 9.80C147.13 9.31 147.06 8.88 146.92 8.50C146.78 8.12 146.59 7.78 146.34 7.53C146.10 7.28 145.81 7.08 145.47 6.94C145.14 6.80 144.77 6.73 144.38 6.73ZM144.40 7.24C144.72 7.24 145.00 7.29 145.26 7.41C145.53 7.52 145.75 7.67 145.94 7.88C146.12 8.09 146.27 8.33 146.37 8.62C146.47 8.92 146.52 9.25 146.52 9.63L141.93 9.63C141.97 9.27 142.06 8.93 142.18 8.64C142.31 8.34 142.48 8.09 142.69 7.88C142.90 7.67 143.15 7.52 143.43 7.41C143.71 7.29 144.03 7.24 144.40 7.24ZM171.33 13.29L171.23 13.29L171.01 13.29C170.91 13.29 170.80 13.27 170.69 13.27L170.69 9.28C170.69 8.89 170.65 8.55 170.55 8.23C170.45 7.91 170.31 7.64 170.13 7.42C169.95 7.20 169.71 7.03 169.43 6.92C169.15 6.79 168.83 6.73 168.45 6.73C167.94 6.73 167.50 6.83 167.09 7.01C166.68 7.20 166.31 7.48 165.94 7.84L166.05 8.05C166.10 8.13 166.17 8.18 166.26 8.18C166.33 8.18 166.43 8.12 166.53 8.02C166.63 7.92 166.77 7.84 166.94 7.73C167.10 7.62 167.29 7.52 167.52 7.42C167.76 7.32 168.04 7.28 168.38 7.28C168.92 7.28 169.34 7.45 169.62 7.80C169.90 8.15 170.03 8.64 170.03 9.28L170.03 10.01C169.25 10.02 168.57 10.09 168.01 10.21C167.45 10.32 166.99 10.47 166.63 10.65C166.26 10.84 166.01 11.06 165.84 11.31C165.68 11.56 165.59 11.83 165.59 12.12C165.59 12.45 165.65 12.73 165.75 12.95C165.86 13.17 166.00 13.36 166.17 13.50C166.33 13.64 166.54 13.75 166.77 13.82C166.99 13.89 167.22 13.93 167.45 13.93C167.73 13.93 168.00 13.90 168.24 13.85C168.48 13.79 168.69 13.71 168.90 13.61C169.11 13.51 169.30 13.38 169.50 13.23C169.68 13.08 169.86 12.91 170.06 12.73L170.16 13.62C170.18 13.75 170.28 13.82 170.42 13.82L170.44 13.82L170.69 13.82L171.61 13.82L171.61 13.54C171.61 13.38 171.51 13.30 171.33 13.29ZM170.03 12.26C169.86 12.43 169.71 12.60 169.54 12.74C169.37 12.88 169.19 13.01 168.99 13.12C168.80 13.23 168.59 13.30 168.36 13.36C168.14 13.41 167.89 13.44 167.62 13.44C167.44 13.44 167.26 13.43 167.09 13.37C166.92 13.31 166.78 13.24 166.66 13.13C166.53 13.02 166.42 12.88 166.35 12.71C166.26 12.54 166.24 12.35 166.24 12.11C166.24 11.86 166.31 11.63 166.46 11.44C166.61 11.24 166.84 11.09 167.15 10.95C167.45 10.81 167.85 10.70 168.32 10.61C168.80 10.53 169.37 10.47 170.03 10.46ZM185.63 7.63C185.15 7.04 184.48 6.73 183.62 6.73C183.11 6.73 182.66 6.86 182.24 7.11C181.83 7.36 181.47 7.69 181.16 8.11L181.09 7.03C181.09 6.96 181.08 6.92 181.03 6.89C180.99 6.86 180.94 6.86 180.88 6.86L180.52 6.86L179.51 6.86L179.51 7.13C179.51 7.28 179.61 7.36 179.79 7.38L179.86 7.38C179.89 7.38 179.93 7.39 179.97 7.39L180.18 7.39C180.28 7.39 180.39 7.41 180.52 7.41L180.52 15.72C180.36 15.72 180.22 15.75 180.11 15.75L179.87 15.75L179.79 15.75C179.61 15.76 179.51 15.85 179.51 16.00L179.51 16.28L180.52 16.28L181.19 16.28L182.20 16.28L182.20 16.00C182.20 15.85 182.10 15.76 181.92 15.75L181.85 15.75L181.73 15.75C181.69 15.75 181.62 15.74 181.52 15.74C181.43 15.74 181.31 15.72 181.19 15.72L181.19 12.88C181.44 13.22 181.73 13.48 182.08 13.65C182.43 13.82 182.84 13.90 183.32 13.90C183.81 13.90 184.23 13.80 184.60 13.62C184.98 13.44 185.30 13.19 185.56 12.87C185.81 12.54 186.02 12.15 186.14 11.72C186.28 11.28 186.34 10.79 186.34 10.29C186.34 9.10 186.10 8.22 185.63 7.63ZM185.50 11.55C185.40 11.93 185.23 12.25 185.02 12.53C184.81 12.81 184.56 13.01 184.25 13.16C183.95 13.31 183.58 13.38 183.18 13.38C182.76 13.38 182.39 13.30 182.07 13.13C181.75 12.96 181.45 12.70 181.19 12.29L181.19 8.64C181.48 8.20 181.80 7.87 182.18 7.63C182.56 7.39 182.98 7.28 183.44 7.28C184.16 7.28 184.70 7.52 185.08 8.01C185.46 8.50 185.65 9.25 185.65 10.29C185.65 10.75 185.61 11.17 185.50 11.55ZM199.11 6.80C198.93 6.76 198.74 6.73 198.53 6.73C197.99 6.73 197.53 6.89 197.15 7.21C196.77 7.53 196.48 7.98 196.25 8.54L196.20 7.07C196.20 6.99 196.17 6.93 196.14 6.90C196.11 6.87 196.06 6.86 195.97 6.86L195.62 6.86L195.62 6.86L194.61 6.86L194.61 7.13C194.61 7.31 194.71 7.36 194.88 7.38C194.96 7.38 195.05 7.38 195.62 7.41L195.62 13.26C195.05 13.29 194.96 13.29 194.88 13.29C194.71 13.30 194.61 13.36 194.61 13.54L194.61 13.82L195.62 13.82L196.28 13.82L196.28 13.82L197.29 13.82L197.29 13.54C197.29 13.36 197.19 13.30 197.02 13.29C196.94 13.29 196.85 13.29 196.28 13.26L196.28 9.30C196.49 8.68 196.77 8.20 197.11 7.88C197.44 7.56 197.88 7.39 198.41 7.39C198.55 7.39 198.67 7.41 198.79 7.42C198.90 7.43 199.01 7.45 199.08 7.48C199.16 7.50 199.21 7.53 199.26 7.55C199.32 7.56 199.36 7.57 199.39 7.57C199.47 7.57 199.51 7.53 199.53 7.46L199.61 7.00C199.46 6.92 199.29 6.85 199.11 6.80ZM210.56 6.73C210.07 6.73 209.62 6.83 209.23 7.00C208.84 7.17 208.52 7.41 208.25 7.71C207.98 8.02 207.77 8.39 207.63 8.81C207.49 9.23 207.41 9.69 207.41 10.19C207.41 10.78 207.49 11.31 207.65 11.77C207.80 12.24 208.01 12.61 208.29 12.94C208.57 13.26 208.91 13.50 209.30 13.66C209.69 13.83 210.13 13.90 210.60 13.90C210.87 13.90 211.13 13.89 211.39 13.83C211.64 13.78 211.89 13.71 212.11 13.62C212.34 13.54 212.55 13.44 212.73 13.31C212.91 13.19 213.07 13.06 213.18 12.92L213.00 12.70C212.97 12.66 212.91 12.63 212.86 12.63C212.81 12.63 212.73 12.66 212.63 12.74C212.53 12.82 212.39 12.91 212.21 13.01C212.04 13.10 211.82 13.17 211.57 13.26C211.32 13.34 211.01 13.38 210.66 13.38C210.27 13.38 209.92 13.31 209.59 13.17C209.27 13.03 209.01 12.84 208.78 12.57C208.56 12.31 208.39 11.97 208.26 11.58C208.14 11.19 208.08 10.71 208.08 10.19L208.08 10.07L213.11 10.07C213.18 10.07 213.22 10.05 213.25 10.01C213.28 9.97 213.30 9.90 213.30 9.80C213.30 9.31 213.23 8.88 213.09 8.50C212.95 8.12 212.77 7.78 212.52 7.53C212.28 7.28 211.99 7.08 211.65 6.94C211.32 6.80 210.95 6.73 210.56 6.73ZM210.57 7.24C210.90 7.24 211.18 7.29 211.44 7.41C211.71 7.52 211.93 7.67 212.11 7.88C212.30 8.09 212.45 8.33 212.55 8.62C212.65 8.92 212.70 9.25 212.70 9.63L208.11 9.63C208.15 9.27 208.24 8.93 208.36 8.64C208.49 8.34 208.66 8.09 208.87 7.88C209.08 7.67 209.33 7.52 209.61 7.41C209.89 7.29 210.21 7.24 210.57 7.24ZM228.77 13.29L228.70 13.29L228.59 13.29C228.55 13.29 228.48 13.27 228.38 13.27C228.28 13.27 228.17 13.26 228.05 13.26L228.05 9.37C228.05 8.96 227.99 8.60 227.89 8.27C227.79 7.95 227.65 7.67 227.46 7.45C227.26 7.22 227.02 7.06 226.73 6.93C226.44 6.80 226.10 6.75 225.72 6.75C225.20 6.75 224.73 6.87 224.31 7.11C223.89 7.36 223.52 7.67 223.20 8.08L223.15 7.03C223.13 6.92 223.06 6.86 222.94 6.86L222.57 6.86L221.56 6.86L221.56 7.13C221.56 7.28 221.65 7.36 221.83 7.38L221.91 7.38C221.94 7.38 221.97 7.39 222.01 7.39L222.22 7.39C222.32 7.39 222.45 7.41 222.57 7.41L222.57 13.26C222.40 13.26 222.26 13.29 222.15 13.29L221.93 13.29L221.83 13.29C221.65 13.30 221.56 13.38 221.56 13.54L221.56 13.82L222.57 13.82L223.23 13.82L224.24 13.82L224.24 13.54C224.24 13.38 224.15 13.30 223.97 13.29L223.89 13.29L223.79 13.29C223.75 13.29 223.68 13.27 223.58 13.27C223.48 13.27 223.36 13.26 223.23 13.26L223.23 8.60C223.54 8.19 223.89 7.87 224.28 7.63C224.67 7.39 225.09 7.28 225.55 7.28C226.17 7.28 226.63 7.46 226.93 7.83C227.22 8.20 227.37 8.71 227.37 9.37L227.37 13.82L228.05 13.82L229.05 13.82L229.05 13.54C229.05 13.38 228.96 13.30 228.77 13.29ZM243.94 13.54C243.94 13.38 243.85 13.30 243.67 13.29L243.60 13.29L243.50 13.29C243.46 13.29 243.39 13.27 243.31 13.27L243.00 13.27L243.00 3.63L242.34 3.63L241.33 3.63L241.33 3.91C241.33 4.06 241.43 4.14 241.61 4.16L241.68 4.16C241.71 4.16 241.74 4.17 241.78 4.17L242.00 4.17C242.10 4.17 242.21 4.19 242.34 4.19L242.34 7.76C242.09 7.42 241.79 7.17 241.44 7.00C241.09 6.82 240.69 6.73 240.21 6.73C239.72 6.73 239.29 6.83 238.91 7.01C238.53 7.20 238.22 7.46 237.96 7.78C237.69 8.11 237.51 8.50 237.37 8.93C237.23 9.37 237.17 9.84 237.17 10.35C237.17 11.54 237.41 12.43 237.89 13.02C238.36 13.61 239.04 13.90 239.89 13.90C240.41 13.90 240.87 13.79 241.29 13.54C241.71 13.29 242.06 12.95 242.37 12.53L242.44 13.64C242.45 13.76 242.52 13.82 242.63 13.82L243.00 13.82L243.94 13.82L243.94 13.61ZM242.34 12.01C242.05 12.43 241.71 12.77 241.33 13.01C240.95 13.24 240.55 13.37 240.09 13.37C239.37 13.37 238.81 13.13 238.43 12.64C238.06 12.15 237.86 11.38 237.86 10.35C237.86 9.88 237.90 9.48 238.01 9.10C238.13 8.72 238.28 8.39 238.49 8.12C238.70 7.85 238.95 7.63 239.26 7.48C239.57 7.32 239.93 7.25 240.34 7.25C240.74 7.25 241.12 7.34 241.44 7.50C241.77 7.67 242.07 7.95 242.34 8.34ZM255.16 6.73C254.67 6.73 254.23 6.83 253.83 7.00C253.44 7.17 253.12 7.41 252.85 7.71C252.59 8.02 252.38 8.39 252.24 8.81C252.10 9.23 252.01 9.69 252.01 10.19C252.01 10.78 252.10 11.31 252.25 11.77C252.41 12.24 252.62 12.61 252.90 12.94C253.18 13.26 253.51 13.50 253.90 13.66C254.30 13.83 254.73 13.90 255.21 13.90C255.47 13.90 255.74 13.89 255.99 13.83C256.24 13.78 256.49 13.71 256.72 13.62C256.94 13.54 257.15 13.44 257.33 13.31C257.52 13.19 257.67 13.06 257.78 12.92L257.60 12.70C257.57 12.66 257.52 12.63 257.46 12.63C257.42 12.63 257.33 12.66 257.24 12.74C257.14 12.82 257.00 12.91 256.82 13.01C256.65 13.10 256.42 13.17 256.17 13.26C255.92 13.34 255.61 13.38 255.26 13.38C254.87 13.38 254.52 13.31 254.20 13.17C253.88 13.03 253.61 12.84 253.39 12.57C253.16 12.31 252.99 11.97 252.87 11.58C252.74 11.19 252.69 10.71 252.69 10.19L252.69 10.07L257.71 10.07C257.78 10.07 257.82 10.05 257.85 10.01C257.88 9.97 257.91 9.90 257.91 9.80C257.91 9.31 257.84 8.88 257.70 8.50C257.56 8.12 257.38 7.78 257.12 7.53C256.89 7.28 256.59 7.08 256.26 6.94C255.92 6.80 255.56 6.73 255.16 6.73ZM255.18 7.24C255.50 7.24 255.78 7.29 256.05 7.41C256.31 7.52 256.54 7.67 256.72 7.88C256.90 8.09 257.05 8.33 257.15 8.62C257.25 8.92 257.31 9.25 257.31 9.63L252.71 9.63C252.76 9.27 252.84 8.93 252.97 8.64C253.09 8.34 253.26 8.09 253.47 7.88C253.68 7.67 253.93 7.52 254.21 7.41C254.49 7.29 254.81 7.24 255.18 7.24ZM270.66 6.80C270.48 6.76 270.30 6.73 270.09 6.73C269.54 6.73 269.08 6.89 268.70 7.21C268.32 7.53 268.03 7.98 267.81 8.54L267.75 7.07C267.75 6.99 267.72 6.93 267.69 6.90C267.67 6.87 267.61 6.86 267.53 6.86L267.18 6.86L267.18 6.86L266.17 6.86L266.17 7.13C266.17 7.31 266.27 7.36 266.43 7.38C266.52 7.38 266.60 7.38 267.18 7.41L267.18 13.26C266.60 13.29 266.52 13.29 266.43 13.29C266.27 13.30 266.17 13.36 266.17 13.54L266.17 13.82L267.18 13.82L267.83 13.82L267.83 13.82L268.84 13.82L268.84 13.54C268.84 13.36 268.74 13.30 268.58 13.29C268.49 13.29 268.41 13.29 267.83 13.26L267.83 9.30C268.04 8.68 268.32 8.20 268.66 7.88C269.00 7.56 269.43 7.39 269.96 7.39C270.10 7.39 270.23 7.41 270.34 7.42C270.45 7.43 270.56 7.45 270.63 7.48C270.72 7.50 270.76 7.53 270.82 7.55C270.87 7.56 270.91 7.57 270.94 7.57C271.03 7.57 271.07 7.53 271.08 7.46L271.17 7.00C271.01 6.92 270.84 6.85 270.66 6.80Z"></path></g></svg>